<?xml version="1.0" encoding="UTF-8"?><svg id="Layer_2" xmlns="http://www.w3.org/2000/svg" viewBox="0 0 281.62 209.31"><defs><style>.cls-1{fill:#eae4dc;}.cls-2{fill:#a68866;}.cls-3{fill:#d8cbbb;}.cls-4{fill:#6a563d;}.cls-5{fill:#baa388;}.cls-6{fill:#fefefe;}</style></defs><g id="Layer_1-2"><g><path d="M56.99,112.61c-4.96-8.29-8.86-16.76-11.37-25.84-2.25-8.17-3.57-16.47-3.63-24.94-.07-8.76,.1-17.52-.08-26.27-.11-5.42,1.96-9.73,5.75-13.37,6.47-6.22,14.53-9.61,22.84-12.38C90.1,3.28,110.39,.8,130.94,.17c24.2-.74,48.21,.82,71.74,7.05,9.08,2.41,17.91,5.48,25.89,10.62,7.63,4.91,12.29,11.31,11.27,20.95-.38,3.59-.03,7.26-.08,10.89-.02,1.47,.05,2.18,2.05,2.04,15.69-1.17,27.13,5.62,32.11,18.85,5.87,15.58,1.72,31.43-10.67,40.89-4.87,3.72-10.32,6.36-16.19,8.86,8.37,3.82,16.31,7.89,23.05,13.9,6.38,5.7,11.3,12.27,11.5,21.29,.15,6.89-2.81,12.6-7.26,17.6-7.86,8.82-17.99,14.23-28.67,18.72-17.41,7.32-35.69,11.38-54.3,14.02-25.36,3.6-50.84,4.31-76.36,2.53-28.2-1.97-55.92-6.39-82.04-17.89-9.81-4.32-19.07-9.61-26.13-17.96-9.33-11.03-9.11-23.6,.65-34.37,8.07-8.91,18.49-14.25,29.39-18.77,6.4-2.65,12.99-4.75,20.11-6.78Z"/><path class="cls-3" d="M233.13,47.03c2.44,38.21-9.77,69.63-42.2,90.5-31.76,20.44-65.35,21.03-97.69,1.56-34.15-20.56-47.24-52.58-44.7-91.96,11.87,9.2,25.74,13.14,39.94,16.08,25.91,5.37,52.08,6.12,78.38,3.85,16.3-1.41,32.34-4.2,47.77-9.87,6.59-2.42,12.84-5.5,18.51-10.17Z"/><path class="cls-2" d="M74.73,133.69c-4.61,2.19-8.91,4.23-12.68,7.24-9.68,7.74-9.76,17.86-.03,25.53,7.8,6.15,17,9.39,26.46,11.63,34.63,8.19,69.34,8.3,104,.16,9.89-2.32,19.53-5.58,27.57-12.18,9.02-7.41,9.08-16.73,.3-24.5-3.86-3.42-8.52-5.51-13.24-7.84,2.48-2.99,4.87-5.2,9-5.6,6.46-.63,12.81-2.21,19.07-3.97,1.27-.36,2.52-.65,3.76-.16,10.37,4.07,20.42,8.71,28.59,16.59,.69,.67,1.35,1.37,1.98,2.09,7.63,8.6,7.62,17.82-.09,26.39-6.5,7.22-14.77,11.85-23.52,15.69-17.82,7.82-36.61,11.97-55.78,14.76-20.56,2.99-41.24,3.84-61.96,3.1-31.17-1.12-61.85-5.18-90.96-17.25-8.82-3.66-17.19-8.18-23.92-15.13-9.25-9.56-9.17-19.53,.18-28.98,7.28-7.35,16.33-11.91,25.71-15.85,6.19-2.61,12.61-4.6,19.05-6.53,1.92-.57,3.09-.2,4.28,1.45,3.5,4.84,7.69,9.11,12.21,13.37Z"/><path class="cls-1" d="M140.85,6.55c22.18-.06,44.12,1.87,65.44,8.42,7.86,2.41,15.55,5.32,21.99,10.69,2.93,2.45,5.36,5.23,4.79,9.53-.44,3.36-6.05,9.84-9.15,10.46-.85,.17-1.43-.32-2.09-.63-15.18-7.02-31.36-10.17-47.81-12.15-22.15-2.67-44.32-2.67-66.46,.01-16.45,2-32.63,5.14-47.8,12.2-.78,.36-1.54,.97-2.38,.41-3.69-2.41-7.35-4.94-8.72-9.43-1.05-3.46,.58-6.25,2.9-8.66,5.11-5.29,11.67-8.14,18.41-10.57,19.69-7.08,40.19-9.49,60.95-10.27,3.31-.12,6.62-.02,9.93-.02Z"/><path class="cls-5" d="M140.42,177.77c-20.37-.22-40.91-2.03-60.66-9.08-4.93-1.76-9.7-3.92-13.81-7.25-6.41-5.2-6.34-10.38,.14-15.49,3.46-2.73,7.44-4.54,11.41-6.38,2.08-.96,3.6-.78,5.47,.61,10.77,7.96,22.72,13.47,35.8,16.31,29.11,6.33,55.87,.79,80.14-16.46,1.73-1.23,3.05-1.42,4.9-.6,4.39,1.96,8.78,3.92,12.44,7.12,5.63,4.92,5.62,9.63-.07,14.46-5.31,4.51-11.68,6.97-18.2,9.04-18.59,5.92-37.77,7.55-57.56,7.73Z"/><path class="cls-4" d="M66.17,49.3c49.73-15.99,99.43-15.96,149.14-.89,.04,.54,.09,1.08,.13,1.63-23.91,9.24-48.97,11.68-74.42,11.73-25.6,.05-50.78-2.57-74.85-12.46Z"/><path class="cls-3" d="M218.72,121.31c2.34-3.48,4.45-6.41,6.32-9.5,.81-1.33,1.99-1.46,3.19-1.77,8.84-2.25,17.21-5.49,24.79-10.72,7.12-4.92,8.91-11.66,7.19-19.64-1.95-9.07-6.55-12.43-16.25-12.25q-4.54,.08-4.31-4.46,.25-5,5.17-5.08c14.63-.24,24.46,9.43,25.26,24.82,.53,10.2-3.34,18.32-11.6,24.26-9.91,7.12-21.41,10.29-33.07,13.01-2.07,.48-4.16,.84-6.69,1.34Z"/><path class="cls-6" d="M230.01,102.94c3.54-7.8,6.08-15.2,7.68-22.9,1.31-6.32,1.37-6.3,7.97-6.22,4.8,.06,6.4,1.24,7.9,5.81,2.15,6.57,.85,10.74-4.68,14.73-5.48,3.96-11.64,6.45-18.87,8.58Z"/></g></g></svg>