<?xml version="1.0" encoding="UTF-8"?><svg id="Layer_2" xmlns="http://www.w3.org/2000/svg" viewBox="0 0 207.91 300"><defs><style>.cls-1{fill:#e74c3c;}</style></defs><g id="Layer_1-2"><path class="cls-1" d="m103.91,300c-2.37-4-4.44-7.61-6.62-11.14-8.96-14.54-18.01-29.04-26.94-43.61-10.95-17.87-21.98-35.69-32.67-53.71-6.83-11.52-13.43-23.22-19.54-35.13-7.27-14.16-14.03-28.65-17.4-44.3-1.14-5.28-.75-11.03-.23-16.49.66-6.88,1.64-13.82,3.42-20.49,3.6-13.46,10.04-25.59,18.85-36.43,10.24-12.6,22.52-22.56,37.29-29.42,9.66-4.49,19.71-7.65,30.33-8.45,7.78-.59,15.67-1.18,23.42-.57,10.4.82,20.58,3.34,30.28,7.44,12.69,5.37,24.05,12.83,33.64,22.7,14.5,14.92,24.09,32.47,28.04,53.11,1.59,8.28,2.89,16.68,1.62,24.82-1.43,9.14-4.26,18.21-7.61,26.88-7,18.1-16.22,35.18-26.37,51.7-17.83,29.03-35.92,57.91-53.83,86.89-5.22,8.45-10.22,17.05-15.69,26.21ZM57.6,99.68c-1.03,24.4,21.55,47.14,46.46,46.55,25.31-.6,46.33-20.27,46.26-46.28-.07-26.45-19.6-46.12-46.38-46.62-26.11-.49-46.99,21.96-46.33,46.35Z"/></g></svg>